<?xml version="1.0" standalone="no"?>
<svg viewBox="0 0 200 200" xmlns="http://www.w3.org/2000/svg">
  <path fill="#E22030" d="M36.9,-64C48.6,-57.3,59.2,-48.8,63.7,-37.9C68.2,-26.9,66.6,-13.5,68.6,1.2C70.6,15.8,76.3,31.5,72.5,43.7C68.7,55.9,55.4,64.4,41.7,71.9C28.1,79.4,14,85.9,1.7,83C-10.7,80.1,-21.4,67.8,-32.7,59C-44,50.1,-56,44.6,-62.5,35.4C-69,26.1,-70.2,13.1,-72,-1C-73.8,-15.2,-76.3,-30.3,-72,-43.4C-67.7,-56.6,-56.6,-67.7,-43.4,-73.5C-30.3,-79.4,-15.2,-80.1,-1.3,-77.9C12.6,-75.7,25.3,-70.7,36.9,-64Z" transform="translate(100 100)" />
</svg>
