<?xml version="1.0" standalone="no"?>
<svg viewBox="0 0 200 200" xmlns="http://www.w3.org/2000/svg">
  <path fill="#E22030" d="M45.5,-78.6C59.5,-70.7,71.8,-59.6,80.6,-46C89.4,-32.4,94.7,-16.2,94.6,0C94.6,16.1,89.2,32.3,80,45.1C70.8,58,57.6,67.6,43.7,74.3C29.7,81.1,14.8,85.2,0.1,85C-14.6,84.8,-29.2,80.3,-42.7,73.3C-56.2,66.2,-68.7,56.5,-77.2,43.9C-85.8,31.2,-90.4,15.6,-90.7,-0.1C-90.9,-15.8,-86.6,-31.7,-78.1,-44.5C-69.6,-57.2,-56.9,-66.9,-43.2,-75C-29.5,-83.1,-14.7,-89.6,0.5,-90.4C15.7,-91.3,31.4,-86.5,45.5,-78.6Z" transform="translate(100 100)" />
</svg>
